<?xml version="1.0" encoding="UTF-8"?>
<svg version="1.1" xmlns="http://www.w3.org/2000/svg" width="500" height="500">
<path d="M0 0 C165 0 330 0 500 0 C500 165 500 330 500 500 C335 500 170 500 0 500 C0 335 0 170 0 0 Z " fill="#FEFEFE" transform="translate(0,0)"/>
<path d="M0 0 C1.11942993 0.00628418 1.11942993 0.00628418 2.26147461 0.01269531 C10.53488855 0.17970936 18.05325849 1.66185551 25.375 5.625 C26.53 6.181875 27.685 6.73875 28.875 7.3125 C31.50973789 6.31433968 33.51629208 4.88497195 35.875 3.3125 C42.31721392 1.90115544 48.81172488 2.09045857 55.375 2.0625 C56.58542969 2.041875 57.79585938 2.02125 59.04296875 2 C60.21472656 1.99484375 61.38648438 1.9896875 62.59375 1.984375 C64.18606445 1.97035645 64.18606445 1.97035645 65.81054688 1.95605469 C70.72442434 2.52761787 74.64926269 4.54913981 77.875 8.3125 C80.37177536 7.20282206 82.06987253 6.13323726 84.10107422 4.26473999 C87.52952461 1.85185714 89.40916538 1.81657101 93.5703125 1.82666016 C94.2231572 1.82286346 94.87600189 1.81906677 95.54862976 1.81515503 C97.69958138 1.8077687 99.84916892 1.82912066 102 1.8515625 C103.50870608 1.85395054 105.01741517 1.85485149 106.52612305 1.8543396 C109.69029349 1.85746548 112.85401021 1.87399964 116.01806641 1.90087891 C120.03780512 1.93462511 124.05704056 1.94251369 128.0769043 1.94098854 C131.19656015 1.94153784 134.31610988 1.95259727 137.43572998 1.96699142 C138.91541747 1.97328079 140.3951168 1.97727951 141.87481689 1.97877884 C163.54449486 2.02472788 163.54449486 2.02472788 173.4375 6 C177.26715917 7.49425969 177.26715917 7.49425969 180.875 6.3125 C181.76584793 5.64627121 182.65669586 4.98004242 183.57453918 4.29362488 C187.36545436 2.01810131 189.45962772 1.80383604 193.8425293 1.7824707 C194.51158295 1.77373932 195.1806366 1.76500793 195.8699646 1.75601196 C198.06332782 1.73177599 200.25573936 1.73503716 202.44921875 1.73828125 C203.98046969 1.72582737 205.51170637 1.71149072 207.04292297 1.69535828 C211.06127898 1.6574176 215.0793888 1.64215908 219.09790039 1.63256836 C225.53987549 1.61278617 231.98166387 1.55597463 238.42344093 1.50380516 C240.67193374 1.48846737 242.92033314 1.48127056 245.16886902 1.47566223 C246.54446457 1.46864667 247.9200597 1.4615458 249.2956543 1.4543457 C250.49667282 1.45086624 251.69769135 1.44738678 252.93510437 1.44380188 C255.93621972 1.44408502 255.93621972 1.44408502 258.875 0.3125 C263.47496049 0.04925766 268.08082802 0.08100998 272.6875 0.0625 C273.95916016 0.041875 275.23082031 0.02125 276.54101562 0 C277.77142578 -0.00515625 279.00183594 -0.0103125 280.26953125 -0.015625 C281.39206299 -0.0249707 282.51459473 -0.03431641 283.67114258 -0.04394531 C288.75078227 0.52119025 292.81026924 2.67017584 296.25 6.4375 C296.75273437 6.95570313 297.25546875 7.47390625 297.7734375 8.0078125 C300.58277343 13.88550114 298.72462114 21.37183443 297.625 27.5625 C295.97928233 37.34643712 294.63229943 47.16318938 293.32128906 56.99707031 C290.64632387 76.80700521 290.64632387 76.80700521 288.81567383 80.38012695 C287.25637814 83.5832999 287.85033657 87.02145898 288 90.5 C288.14679436 97.29571528 287.68209277 102.47584209 283.875 108.3125 C283.318125 109.22 282.76125 110.1275 282.1875 111.0625 C275.43158542 117.6358223 268.0508596 119.56425631 258.8828125 119.46484375 C251.72118226 119.10211183 246.19828762 116.71183539 241.16796875 111.56640625 C236.875 106.73053279 236.875 106.73053279 236.875 104.3125 C236.215 104.3125 235.555 104.3125 234.875 104.3125 C234.813125 105.199375 234.75125 106.08625 234.6875 107 C233.67975197 111.10851121 232.01012823 112.55060132 228.875 115.3125 C228.48078857 115.84915283 228.08657715 116.38580566 227.68041992 116.9387207 C224.84085985 119.09939745 221.78305674 118.68043335 218.36328125 118.60546875 C217.63505661 118.60122391 216.90683197 118.59697906 216.15653992 118.59260559 C213.83314873 118.57582733 211.5106285 118.53817855 209.1875 118.5 C207.61134066 118.48495197 206.03516771 118.47126377 204.45898438 118.45898438 C200.59732123 118.42592685 196.73630822 118.37415194 192.875 118.3125 C192.875 117.6525 192.875 116.9925 192.875 116.3125 C188.22913108 116.79734276 188.22913108 116.79734276 183.875 118.3125 C179.38040737 118.54845539 174.88189133 118.54093869 170.38183594 118.55273438 C168.14740245 118.56240306 165.91390358 118.59340702 163.6796875 118.625 C162.25000544 118.63153409 160.82031682 118.63678296 159.390625 118.640625 C157.44591309 118.65464355 157.44591309 118.65464355 155.46191406 118.66894531 C151.59587656 118.28476244 149.27037835 117.11931356 145.875 115.3125 C141.97626843 114.96095724 141.97626843 114.96095724 139.50350952 116.78427124 C136.37203492 118.60492645 134.4210117 118.71465002 130.81884766 118.76416016 C129.62055328 118.7865274 128.42225891 118.80889465 127.18765259 118.8319397 C125.90111786 118.83841522 124.61458313 118.84489075 123.2890625 118.8515625 C121.94534037 118.86375552 120.60162087 118.87624193 119.25790405 118.88900757 C116.44531164 118.91143991 113.63298931 118.92103296 110.8203125 118.92333984 C107.22961412 118.92862103 103.641184 118.97995117 100.05109596 119.04285622 C97.2764924 119.08387547 94.50242997 119.09298314 91.72755051 119.09345627 C89.76490536 119.10140717 87.80247596 119.14164669 85.84024048 119.18252563 C75.88564323 119.10687559 75.88564323 119.10687559 71.57177734 114.88818359 C70.05836853 113.06133409 68.9349031 111.4323062 67.875 109.3125 C64.71062756 110.06402388 64.71062756 110.06402388 62.9375 112.75 C60.80954021 115.39382883 59.98196282 116.170325 56.875 117.3125 C54.35897702 117.51550695 51.95676047 117.61662552 49.44140625 117.61328125 C48.36897926 117.61970894 48.36897926 117.61970894 47.27488708 117.62626648 C45.76619524 117.63199654 44.25747577 117.6325198 42.7487793 117.62817383 C40.44857339 117.62501521 38.14965629 117.64848258 35.84960938 117.67382812 C34.38020995 117.67610151 32.91080708 117.67680443 31.44140625 117.67578125 C30.75792618 117.684991 30.07444611 117.69420074 29.37025452 117.70368958 C24.9821712 117.66147054 22.47759561 116.75027661 18.875 114.3125 C15.65430792 114.48659146 13.20607209 115.57326851 10.1875 116.75 C-4.02578352 122.16964456 -18.58281345 121.46389686 -32.51171875 115.63671875 C-40.77698763 111.44848833 -49.7770056 104.98953399 -54.5625 96.875 C-56.24520547 89.20934175 -54.94975601 84.94838473 -51.0546875 78.2578125 C-48.26230474 73.9957546 -45.17170962 70.00539538 -41.98046875 66.0390625 C-40.13530961 63.3276497 -39.48256625 61.53645797 -39.125 58.3125 C-40.115 57.9825 -41.105 57.6525 -42.125 57.3125 C-45.47545437 47.2611369 -44.09565587 33.62521257 -39.81640625 24.15234375 C-34.89334515 15.88660376 -27.84967524 8.92963953 -19.1875 4.6875 C-18.37410156 4.28273437 -17.56070313 3.87796875 -16.72265625 3.4609375 C-11.06854092 0.96122335 -6.17817047 -0.04744388 0 0 Z " fill="#080808" transform="translate(131.125,181.6875)"/>
<path d="M0 0 C5.65587346 -0.09958872 11.31122578 -0.17180596 16.96777344 -0.21972656 C18.88811139 -0.23972336 20.80838939 -0.26693006 22.72851562 -0.30175781 C44.99848618 -0.69530199 44.99848618 -0.69530199 53.65625 6.078125 C57.73046528 10.87741249 60.45970495 14.65440712 61 21 C61.09152344 21.8559375 61.18304688 22.711875 61.27734375 23.59375 C61.69068957 30.7718531 60.08496966 36.080527 56 42 C53.2142244 45.09926441 50.26864277 47.5074643 46 48 C46 48.66 46 49.32 46 50 C43.69 50.66 41.38 51.32 39 52 C40.72282788 57.0274334 43.52306532 61.32643706 46.3125 65.8125 C46.78623047 66.58142578 47.25996094 67.35035156 47.74804688 68.14257812 C50.57009554 72.72168988 50.57009554 72.72168988 53.47021484 77.25146484 C53.92734863 77.95609863 54.38448242 78.66073242 54.85546875 79.38671875 C55.26821045 80.01151123 55.68095215 80.63630371 56.10620117 81.2800293 C57 83 57 83 57 86 C52.9382411 86.20364742 48.8777944 86.32774825 44.8125 86.4375 C43.66201172 86.49615234 42.51152344 86.55480469 41.32617188 86.61523438 C33.01515245 86.78386375 33.01515245 86.78386375 30.14941406 84.57104492 C28.82149599 82.76473585 27.87881996 81.05865848 27 79 C26.63132812 78.21496094 26.26265625 77.42992187 25.8828125 76.62109375 C25.50769531 75.54021484 25.50769531 75.54021484 25.125 74.4375 C23.44344023 69.97171832 21.49026167 65.70993666 19.375 61.4375 C19.07352051 60.81738037 18.77204102 60.19726074 18.46142578 59.55834961 C16.89674205 56.16594776 16.89674205 56.16594776 14 54 C14.02320313 54.58700684 14.04640625 55.17401367 14.0703125 55.77880859 C14.22011116 62.61203503 13.32088993 68.93595632 12 75.625 C11.34 79.04875 10.68 82.4725 10 86 C2.41 86 -5.18 86 -13 86 C-11.6672444 71.85978813 -10.02749555 58.06594757 -6.77124023 44.23193359 C-5.17538804 37.28927902 -4.215863 30.45143389 -3.72045898 23.34594727 C-3.13022768 15.45214682 -1.53306949 7.75450724 0 0 Z " fill="#F8F8F8" transform="translate(254,193)"/>
<path d="M0 0 C7.59 0 15.18 0 23 0 C21.93394123 11.89065547 20.64544025 23.36006288 18 35 C18.66 35 19.32 35 20 35 C20.23589844 34.27039063 20.47179687 33.54078125 20.71484375 32.7890625 C22.21161576 29.54074878 23.95679541 27.81351541 26.5625 25.375 C31.17877703 20.92597938 35.17239207 16.22156888 39.08984375 11.15234375 C41 9 41 9 44 8 C44.68486725 6.67592331 45.34870203 5.34090759 46 4 C48.28329143 1.06898554 49.38479156 0.08964962 53.11621094 -0.45410156 C54.90720215 -0.42268066 54.90720215 -0.42268066 56.734375 -0.390625 C58.67763672 -0.37128906 58.67763672 -0.37128906 60.66015625 -0.3515625 C62.02344824 -0.31814366 63.38672949 -0.28428391 64.75 -0.25 C66.12888064 -0.22992707 67.50778912 -0.21167767 68.88671875 -0.1953125 C72.25851744 -0.14815448 75.62890687 -0.08234538 79 0 C77.56160439 3.03350208 76.31919127 4.83097994 73.6875 6.9375 C68.9297955 10.87457375 64.79850165 15.20958362 60.6875 19.8125 C56.60839808 24.3734925 52.36334862 28.71303385 48 33 C47.0618235 33.95767107 46.12422316 34.91590733 45.1875 35.875 C43 38 43 38 40 40 C40.50153399 44.31566905 41.3180728 46.9798561 43.9375 50.4375 C47.08296654 54.71972652 50.07479768 59.06641219 53 63.5 C56.43719554 68.69648752 59.95122973 73.81779074 63.625 78.8515625 C65.09893693 81.15458895 66.01670989 83.45510653 67 86 C43.72120256 88.21424748 43.72120256 88.21424748 37.93457031 84.77099609 C34.42282151 81.14083572 32.8180167 76.63789744 31 72 C29.86190679 70.21747367 28.68073799 68.46085228 27.4375 66.75 C25 63.23577236 25 63.23577236 25 61 C24.34 61 23.68 61 23 61 C22.59007812 60.21753906 22.18015625 59.43507812 21.7578125 58.62890625 C21.21898437 57.61699219 20.68015625 56.60507813 20.125 55.5625 C19.59132812 54.55316406 19.05765625 53.54382813 18.5078125 52.50390625 C17.24345886 49.89859558 17.24345886 49.89859558 15 49 C14.97421875 49.66 14.9484375 50.32 14.921875 51 C14.24481756 62.8177299 12.01830122 74.34593812 10 86 C2.41 86 -5.18 86 -13 86 C-12.22655325 79.03897923 -11.45148537 72.07978642 -10.625 65.125 C-10.5115625 64.11308594 -10.398125 63.10117187 -10.28125 62.05859375 C-9.55603567 56.03314276 -8.35385964 50.42477787 -6.66894531 44.59960938 C-5.65378163 40.65454993 -5.34811816 36.74007632 -5.0625 32.6875 C-4.13173223 21.62527154 -2.09624519 10.90047498 0 0 Z " fill="#F7F7F7" transform="translate(172,193)"/>
<path d="M0 0 C1.70051477 1.28988569 3.37820683 2.6124329 5 4 C3.51095825 7.89608498 1.75621287 11.59097018 -0.125 15.3125 C-0.66382813 16.38113281 -1.20265625 17.44976562 -1.7578125 18.55078125 C-2.16773438 19.35902344 -2.57765625 20.16726562 -3 21 C-6.21855526 20.37075436 -8.43735659 19.19578841 -11.1875 17.4375 C-15.73301204 14.83361396 -19.81184243 13.95798104 -25 15 C-27.23633324 16.86895888 -27.23633324 16.86895888 -27.5625 19.75 C-26.84306554 23.90673246 -25.42959757 25.04459827 -22.1875 27.57421875 C-19.90048848 29.06486019 -17.59722102 30.22000924 -15.125 31.375 C-9.11978614 34.21232581 -3.63443304 38.25456005 0.22265625 43.73828125 C2.73218273 51.03986835 2.20451555 61.63332972 -1 68.625 C-6.2535391 77.3266366 -14.64707209 82.77100255 -24.375 85.25 C-35.90652904 87.44553983 -45.70835027 85.45972246 -55.6015625 79.18359375 C-56.06304687 78.79300781 -56.52453125 78.40242188 -57 78 C-57 77.34 -57 76.68 -57 76 C-57.598125 75.71125 -58.19625 75.4225 -58.8125 75.125 C-61 74 -61 74 -64 72 C-63.40149598 69.01034358 -62.51087951 67.00221502 -60.71484375 64.546875 C-60.26689453 63.928125 -59.81894531 63.309375 -59.35742188 62.671875 C-58.88884766 62.03765625 -58.42027344 61.4034375 -57.9375 60.75 C-57.22883789 59.77546875 -57.22883789 59.77546875 -56.50585938 58.78125 C-55.34276471 57.18346338 -54.17211399 55.59118197 -53 54 C-50.22537933 55.28059415 -48.57074273 56.39023388 -46.25 58.5 C-41.71858945 62.35966878 -36.56062324 63.05329004 -30.75 63.3125 C-27.11659412 63.21942257 -27.11659412 63.21942257 -24.5 61.875 C-22.76386853 60.00380748 -22.76386853 60.00380748 -22.4375 57.0625 C-22.73277785 53.94208968 -22.73277785 53.94208968 -24.8125 52 C-27.6012403 50.25020217 -30.40190806 48.71960326 -33.3125 47.1875 C-41.56930709 42.76977437 -48.94511071 37.16466786 -52 28 C-52.72073672 20.32138189 -51.9673743 13.218767 -47.453125 6.80078125 C-35.29703483 -7.74887534 -16.10826989 -8.63348739 0 0 Z " fill="#F7F7F7" transform="translate(153,196)"/>
<path d="M0 0 C20.13 0 40.26 0 61 0 C61 4.84234082 60.86657477 8.71488785 60.0625 13.375 C59.88847656 14.41398438 59.71445312 15.45296875 59.53515625 16.5234375 C59 19 59 19 58 20 C56.58429877 20.08651611 55.164405 20.10704904 53.74609375 20.09765625 C52.89208984 20.09443359 52.03808594 20.09121094 51.15820312 20.08789062 C50.26037109 20.07951172 49.36253906 20.07113281 48.4375 20.0625 C47.53580078 20.05798828 46.63410156 20.05347656 45.70507812 20.04882812 C43.46998686 20.03700225 41.23502563 20.0205222 39 20 C38.96189209 20.78294434 38.92378418 21.56588867 38.88452148 22.37255859 C38.26204022 32.90860235 36.72054034 43.21096061 35.0625 53.625 C34.79440634 55.33846108 34.52682579 57.05200253 34.25976562 58.765625 C33.6300057 62.79544775 32.98990804 66.82351382 32.34356689 70.85070801 C32.02418514 72.84870219 31.71082009 74.8476556 31.39794922 76.84667969 C31.22408691 77.93625977 31.05022461 79.02583984 30.87109375 80.1484375 C30.72470459 81.07575684 30.57831543 82.00307617 30.42749023 82.95849609 C30 85 30 85 29 86 C27.36527118 86.08700342 25.72685945 86.10701063 24.08984375 86.09765625 C23.10048828 86.09443359 22.11113281 86.09121094 21.09179688 86.08789062 C20.05087891 86.07951172 19.00996094 86.07113281 17.9375 86.0625 C16.89271484 86.05798828 15.84792969 86.05347656 14.77148438 86.04882812 C12.1809334 86.03699913 9.59049441 86.02051689 7 86 C6.75663046 79.05977215 7.69759522 72.52896116 8.8125 65.6875 C8.99409668 64.54192627 9.17569336 63.39635254 9.36279297 62.21606445 C9.7306376 59.89883738 10.10104849 57.58201612 10.47412109 55.265625 C11.07597483 51.52820829 11.66558138 47.7889577 12.25341797 44.04931641 C12.61372799 41.75914615 12.97650494 39.46937894 13.33984375 37.1796875 C14.24627176 31.45612895 15.12390962 25.72828326 16 20 C10.06 20 4.12 20 -2 20 C-2 12 -2 12 0 0 Z " fill="#F8F8F8" transform="translate(323,193)"/>
<path d="M0 0 C9.9 0 19.8 0 30 0 C32.36570629 7.09711887 31.02508925 14.76831182 29.5625 21.94921875 C28.91593068 25.4559593 28.52070973 28.95627801 28.125 32.5 C27.44272995 38.4287645 26.37396217 44.17992698 25.0625 50 C23.11765854 58.63181258 21.97878503 67.28519385 21.03930664 76.08007812 C20.93094482 77.05267578 20.82258301 78.02527344 20.7109375 79.02734375 C20.62118652 79.89093506 20.53143555 80.75452637 20.43896484 81.64428711 C20 84 20 84 18 88 C8.43 88 -1.14 88 -11 88 C-10.505 87.01 -10.505 87.01 -10 86 C3.365 86.495 3.365 86.495 17 87 C15.02 84.03 13.04 81.06 11 78 C2 64.5 2 64.5 -7 51 C-7.73347656 49.95070312 -8.46695313 48.90140625 -9.22265625 47.8203125 C-11 45 -11 45 -11.0625 42.4375 C-9.65032871 39.19781293 -7.60306298 37.28879798 -5 35 C-3.37447425 33.54225271 -1.74952718 32.08386002 -0.125 30.625 C1.17630859 29.46097656 1.17630859 29.46097656 2.50390625 28.2734375 C5.78225467 25.28752392 8.89750737 22.1661335 12 19 C12.886875 18.13375 13.77375 17.2675 14.6875 16.375 C17.0207044 14.07068716 17.0207044 14.07068716 18.875 11.5625 C21.18917438 8.77187796 23.70527823 6.60963501 26.51171875 4.33203125 C28.12882545 3.04920055 28.12882545 3.04920055 29 1 C19.43 1 9.86 1 0 1 C0 0.67 0 0.34 0 0 Z " fill="#090909" transform="translate(222,192)"/>
<path d="M0 0 C7.59 0 15.18 0 23 0 C23 1.65 23 3.3 23 5 C22.34 5 21.68 5 21 5 C20.89187988 5.91136719 20.78375977 6.82273438 20.67236328 7.76171875 C19.28149012 19.20759412 17.60662944 30.60130728 15.875 42 C15.59486666 43.85413866 15.31491769 45.70830519 15.03515625 47.5625 C14.35922499 52.04204444 13.6795435 56.52099627 13 61 C5.74 61 -1.52 61 -9 61 C-8.54955441 50.0766944 -7.00764452 39.65916098 -5.05078125 28.91015625 C-3.86418742 22.36391568 -2.8859802 15.79268623 -1.95166016 9.20629883 C-1.49281116 6.02382019 -1.01924545 3.05773635 0 0 Z " fill="#F3F3F3" transform="translate(395,190)"/>
<path d="M0 0 C2.82325961 2.08150708 4.5566831 3.73343973 5.390625 7.203125 C5.56840189 11.8253241 4.99518421 15.43172246 1.85546875 18.9765625 C-1.62025151 21.78767475 -4.19246188 22.95985953 -8.70703125 23.0390625 C-12.99215353 21.71457016 -14.94961537 20.09540895 -18.14453125 16.9765625 C-20.00308407 13.25945687 -19.72361564 9.02378969 -19.14453125 4.9765625 C-14.54236283 -1.11820108 -7.10670391 -3.39154176 0 0 Z " fill="#F2F2F2" transform="translate(401.14453125,259.0234375)"/>
<path d="M0 0 C5.52274669 -0.3217134 10.46088563 -0.51303812 15.75 1.25 C18.90898737 5.11098456 18.83660481 8.18620617 18.5859375 13.07421875 C17.83358611 16.83096003 16.67073305 18.65755835 13.69921875 21.01953125 C8.71636223 23.89469673 2.58009336 23.11160187 -3 23 C-2.41993763 15.24548194 -1.37559416 7.65257723 0 0 Z " fill="#040404" transform="translate(274,210)"/>
<path d="M0 0 C0.33 0 0.66 0 1 0 C1.22424141 7.36259293 0.90120099 13.87049629 -1 21 C3.29 21 7.58 21 12 21 C12 21.33 12 21.66 12 22 C6.94997778 23.03590199 2.12583611 23.10251672 -3 23 C-2.41993763 15.24548194 -1.37559416 7.65257723 0 0 Z " fill="#5D5D5D" transform="translate(274,210)"/>
<path d="M0 0 C1.29228516 0.01611328 2.58457031 0.03222656 3.91601562 0.04882812 C5.27085032 0.09059851 6.62566803 0.13292316 7.98046875 0.17578125 C9.35477741 0.20088056 10.72912991 0.22369089 12.10351562 0.24414062 C15.45944851 0.30301664 18.81314965 0.38521705 22.16796875 0.48828125 C21.83796875 1.14828125 21.50796875 1.80828125 21.16796875 2.48828125 C20.41700928 2.45686035 19.6660498 2.42543945 18.89233398 2.39306641 C15.46368988 2.26773462 12.03552844 2.19011459 8.60546875 2.11328125 C7.42404297 2.06300781 6.24261719 2.01273438 5.02539062 1.9609375 C-2.68601814 1.78143008 -2.68601814 1.78143008 -9.171875 5.51171875 C-10.04972656 6.49398437 -10.92757812 7.47625 -11.83203125 8.48828125 C-11.83203125 5.48828125 -11.83203125 5.48828125 -9.7590332 2.83129883 C-6.18163234 -0.03235253 -4.52559436 -0.0996827 0 0 Z " fill="#D1D1D1" transform="translate(228.83203125,192.51171875)"/>
<path d="M0 0 C0.99 0.33 1.98 0.66 3 1 C1.88121617 2.17262904 0.75476949 3.33795138 -0.375 4.5 C-1.00148438 5.1496875 -1.62796875 5.799375 -2.2734375 6.46875 C-4 8 -4 8 -6 8 C-6 8.99 -6 9.98 -6 11 C-6.66 11 -7.32 11 -8 11 C-6.52670958 5.99081256 -3.72484762 3.48192278 0 0 Z " fill="#D1D1D1" transform="translate(112,196)"/>
<path d="M0 0 C-1.50223584 4.20626034 -4.28550034 5.73900021 -8 8 C-6.48291727 4.46014029 -4.24676932 0 0 0 Z " fill="#CACACA" transform="translate(224,193)"/>
</svg>
