<?xml version="1.0" encoding="UTF-8"?>
<svg version="1.1" xmlns="http://www.w3.org/2000/svg" width="383" height="147">
<path d="M0 0 C0.928125 -0.639375 1.85625 -1.27875 2.8125 -1.9375 C8.84477402 -5.84073613 14.60769764 -5.25467576 21.60424805 -5.29516602 C22.98423547 -5.30664839 24.3641798 -5.32704102 25.74389648 -5.35668945 C34.05583498 -5.53515137 39.84106052 -5.30555435 47 -1 C51.06860921 -0.65891411 51.06860921 -0.65891411 54.30664062 -2.96899414 C60.50187739 -6.20103983 67.27895404 -5.55497769 74.09375 -5.49609375 C75.56856355 -5.49624913 77.0433775 -5.49774447 78.51818848 -5.50050354 C81.60475803 -5.5018836 84.69086081 -5.48940846 87.77734375 -5.46655273 C91.68583847 -5.43836939 95.59354708 -5.44085576 99.50209808 -5.45364285 C102.54982917 -5.46068904 105.59738691 -5.45270732 108.64509583 -5.44038582 C110.08322987 -5.43594314 111.52138304 -5.43546977 112.95951843 -5.43945122 C124.51739533 -5.45645513 135.70921576 -4.3516512 146.7611084 -0.78684998 C150.11750947 0.41698783 150.11750947 0.41698783 153.25 -1.8125 C154.1575 -2.534375 155.065 -3.25625 156 -4 C159.28956079 -5.09652026 161.77249313 -5.1512224 165.23706055 -5.18945312 C166.52658127 -5.20617065 167.81610199 -5.22288818 169.1446991 -5.2401123 C169.83491842 -5.24679428 170.52513775 -5.25347626 171.23627281 -5.26036072 C173.41270238 -5.2815024 175.5889903 -5.30852915 177.76533508 -5.33703613 C182.40600025 -5.39670454 187.04673647 -5.44865241 191.6875 -5.5 C197.02592127 -5.55971044 202.36427746 -5.62272719 207.70258522 -5.69187927 C209.81803384 -5.71790499 211.93349077 -5.73906447 214.04899597 -5.7598877 C222.25505235 -5.85523651 230.41086545 -6.21071946 238.59613037 -6.77130127 C242.59212315 -7.03978349 246.5578739 -7.19988998 250.5625 -7.25 C251.82191406 -7.27578125 253.08132813 -7.3015625 254.37890625 -7.328125 C258.57723811 -6.94769363 261.23910348 -5.83930589 265 -4 C265 -3.34 265 -2.68 265 -2 C265.99 -1.67 266.98 -1.34 268 -1 C273.06165467 5.72148059 271.32782504 14.15737365 270.30078125 22.05859375 C269.98139844 24.18642771 269.6515601 26.31271272 269.3125 28.4375 C269.13605957 29.58114014 268.95961914 30.72478027 268.77783203 31.90307617 C268.19973723 35.60453746 267.60326644 39.30256055 267 43 C266.89391418 43.65158081 266.78782837 44.30316162 266.67852783 44.9744873 C265.92555604 49.58972999 265.15488113 54.20172614 264.375 58.8125 C264.16915283 60.03960693 263.96330566 61.26671387 263.7512207 62.53100586 C263.45284302 64.25782593 263.45284302 64.25782593 263.1484375 66.01953125 C262.97489746 67.03120361 262.80135742 68.04287598 262.62255859 69.08520508 C262 72 262 72 260.93603516 75.16552734 C259.81961064 78.54624946 259.87253895 81.26350652 260 84.8125 C260.10485882 94.7845736 259.05826036 101.6025555 252 109 C245.12413124 115.08784784 238.31571495 116.42762258 229.25 116.2421875 C221.31614405 115.65096266 216.44736079 113.09469705 210.7265625 107.62109375 C208.89033949 105.80762467 208.89033949 105.80762467 206 104 C205.34 105.65 204.68 107.3 204 109 C203.34 109 202.68 109 202 109 C202 109.66 202 110.32 202 111 C191.52293883 117.51276776 175.87558339 115.65362221 164.125 114.4375 C156.49803241 113.74586195 148.9142575 114.24251194 141.28369141 114.68139648 C132.91074926 115.11989125 124.11330772 115.49862476 116.0625 112.8125 C112.36667301 111.83197447 111.4359683 112.57008317 108 114 C97.83478927 115.76564296 87.0790574 115.2198252 76.7902832 115.24023438 C73.80848034 115.25001318 70.82734727 115.28115809 67.84570312 115.3125 C65.92448319 115.3190256 64.00325842 115.32427781 62.08203125 115.328125 C60.76450615 115.3466452 60.76450615 115.3466452 59.42036438 115.36553955 C50.3894531 115.33333204 43.58581383 113.24807978 37 107 C36.5875 107.40992187 36.175 107.81984375 35.75 108.2421875 C35.1725 108.78101562 34.595 109.31984375 34 109.875 C33.443125 110.40867187 32.88625 110.94234375 32.3125 111.4921875 C25.67681372 115.8188343 17.62645372 115.3360967 10 115.3125 C8.43765625 115.33666992 8.43765625 115.33666992 6.84375 115.36132812 C0.47633823 115.36534796 -4.1892896 114.6082166 -10 112 C-13.59389163 110.80203612 -13.97493899 111.23623764 -17.25 112.8125 C-27.25626656 117.01951426 -38.35623693 117.8517658 -49 116 C-49.96421875 115.83628906 -50.9284375 115.67257813 -51.921875 115.50390625 C-64.87761434 112.80199688 -77.44686445 105.03919812 -85 94 C-87.14335881 89.92761827 -87.39412153 86.57180977 -87 82 C-84.86268862 76.02874862 -81.59890082 71.28685587 -77.875 66.1875 C-76.7880087 64.68174975 -75.70202104 63.17527432 -74.6171875 61.66796875 C-73.89958252 60.68219849 -73.89958252 60.68219849 -73.16748047 59.67651367 C-71.93930177 57.99871755 -71.93930177 57.99871755 -71 56 C-71.58930888 54.37421821 -72.24790116 52.77334515 -72.9375 51.1875 C-77.38705431 39.22348858 -74.9416818 28.35286371 -70 17 C-62.48660646 4.9958425 -53.67093286 -1.93802953 -40 -6 C-39.40058594 -6.19335938 -38.80117188 -6.38671875 -38.18359375 -6.5859375 C-24.80866206 -9.12214995 -11.78324437 -6.4474356 0 0 Z " fill="#070707" transform="translate(97,17)"/>
<path d="M0 0 C5.65587346 -0.09958872 11.31122578 -0.17180596 16.96777344 -0.21972656 C18.88811139 -0.23972336 20.80838939 -0.26693006 22.72851562 -0.30175781 C44.99848618 -0.69530199 44.99848618 -0.69530199 53.65625 6.078125 C57.73046528 10.87741249 60.45970495 14.65440712 61 21 C61.09152344 21.8559375 61.18304688 22.711875 61.27734375 23.59375 C61.69068957 30.7718531 60.08496966 36.080527 56 42 C53.2142244 45.09926441 50.26864277 47.5074643 46 48 C46 48.66 46 49.32 46 50 C43.69 50.66 41.38 51.32 39 52 C40.72282788 57.0274334 43.52306532 61.32643706 46.3125 65.8125 C46.78623047 66.58142578 47.25996094 67.35035156 47.74804688 68.14257812 C50.57009554 72.72168988 50.57009554 72.72168988 53.47021484 77.25146484 C53.92734863 77.95609863 54.38448242 78.66073242 54.85546875 79.38671875 C55.26821045 80.01151123 55.68095215 80.63630371 56.10620117 81.2800293 C57 83 57 83 57 86 C52.9382411 86.20364742 48.8777944 86.32774825 44.8125 86.4375 C43.66201172 86.49615234 42.51152344 86.55480469 41.32617188 86.61523438 C33.01515245 86.78386375 33.01515245 86.78386375 30.14941406 84.57104492 C28.82149599 82.76473585 27.87881996 81.05865848 27 79 C26.63132813 78.21496094 26.26265625 77.42992188 25.8828125 76.62109375 C25.50769531 75.54021484 25.50769531 75.54021484 25.125 74.4375 C23.44344023 69.97171832 21.49026167 65.70993666 19.375 61.4375 C19.07352051 60.81738037 18.77204102 60.19726074 18.46142578 59.55834961 C16.89674205 56.16594776 16.89674205 56.16594776 14 54 C14.02320313 54.58700684 14.04640625 55.17401367 14.0703125 55.77880859 C14.22011116 62.61203503 13.32088993 68.93595632 12 75.625 C11.34 79.04875 10.68 82.4725 10 86 C2.41 86 -5.18 86 -13 86 C-11.6672444 71.85978813 -10.02749555 58.06594757 -6.77124023 44.23193359 C-5.17538804 37.28927902 -4.215863 30.45143389 -3.72045898 23.34594727 C-3.13022768 15.45214682 -1.53306949 7.75450724 0 0 Z " fill="#F8F8F8" transform="translate(190,23)"/>
<path d="M0 0 C7.59 0 15.18 0 23 0 C21.93394123 11.89065547 20.64544025 23.36006288 18 35 C18.66 35 19.32 35 20 35 C20.23589844 34.27039062 20.47179687 33.54078125 20.71484375 32.7890625 C22.21161576 29.54074878 23.95679541 27.81351541 26.5625 25.375 C31.17877703 20.92597938 35.17239207 16.22156888 39.08984375 11.15234375 C41 9 41 9 44 8 C44.68486725 6.67592331 45.34870203 5.34090759 46 4 C48.28329143 1.06898554 49.38479156 0.08964962 53.11621094 -0.45410156 C54.90720215 -0.42268066 54.90720215 -0.42268066 56.734375 -0.390625 C58.67763672 -0.37128906 58.67763672 -0.37128906 60.66015625 -0.3515625 C62.02344824 -0.31814366 63.38672949 -0.28428391 64.75 -0.25 C66.12888064 -0.22992707 67.50778912 -0.21167767 68.88671875 -0.1953125 C72.25851744 -0.14815448 75.62890687 -0.08234538 79 0 C77.56160439 3.03350208 76.31919127 4.83097994 73.6875 6.9375 C68.9297955 10.87457375 64.79850165 15.20958362 60.6875 19.8125 C56.60839808 24.3734925 52.36334862 28.71303385 48 33 C47.0618235 33.95767107 46.12422316 34.91590733 45.1875 35.875 C43 38 43 38 40 40 C40.50153399 44.31566905 41.3180728 46.9798561 43.9375 50.4375 C47.08296654 54.71972652 50.07479768 59.06641219 53 63.5 C56.43719554 68.69648752 59.95122973 73.81779074 63.625 78.8515625 C65.09893693 81.15458895 66.01670989 83.45510653 67 86 C43.72120256 88.21424748 43.72120256 88.21424748 37.93457031 84.77099609 C34.42282151 81.14083572 32.8180167 76.63789744 31 72 C29.86190679 70.21747367 28.68073799 68.46085228 27.4375 66.75 C25 63.23577236 25 63.23577236 25 61 C24.34 61 23.68 61 23 61 C22.59007812 60.21753906 22.18015625 59.43507812 21.7578125 58.62890625 C21.21898437 57.61699219 20.68015625 56.60507813 20.125 55.5625 C19.59132812 54.55316406 19.05765625 53.54382813 18.5078125 52.50390625 C17.24345886 49.89859558 17.24345886 49.89859558 15 49 C14.97421875 49.66 14.9484375 50.32 14.921875 51 C14.24481756 62.8177299 12.01830122 74.34593812 10 86 C2.41 86 -5.18 86 -13 86 C-12.22655325 79.03897923 -11.45148537 72.07978642 -10.625 65.125 C-10.5115625 64.11308594 -10.398125 63.10117188 -10.28125 62.05859375 C-9.55603567 56.03314276 -8.35385964 50.42477787 -6.66894531 44.59960938 C-5.65378163 40.65454993 -5.34811816 36.74007632 -5.0625 32.6875 C-4.13173223 21.62527154 -2.09624519 10.90047498 0 0 Z " fill="#F7F7F7" transform="translate(108,23)"/>
<path d="M0 0 C1.70051477 1.28988569 3.37820683 2.6124329 5 4 C3.51095825 7.89608498 1.75621287 11.59097018 -0.125 15.3125 C-0.66382813 16.38113281 -1.20265625 17.44976562 -1.7578125 18.55078125 C-2.16773438 19.35902344 -2.57765625 20.16726562 -3 21 C-6.21855526 20.37075436 -8.43735659 19.19578841 -11.1875 17.4375 C-15.73301204 14.83361396 -19.81184243 13.95798104 -25 15 C-27.23633324 16.86895888 -27.23633324 16.86895888 -27.5625 19.75 C-26.84306554 23.90673246 -25.42959757 25.04459827 -22.1875 27.57421875 C-19.90048848 29.06486019 -17.59722102 30.22000924 -15.125 31.375 C-9.11978614 34.21232581 -3.63443304 38.25456005 0.22265625 43.73828125 C2.73218273 51.03986835 2.20451555 61.63332972 -1 68.625 C-6.2535391 77.3266366 -14.64707209 82.77100255 -24.375 85.25 C-35.90652904 87.44553983 -45.70835027 85.45972246 -55.6015625 79.18359375 C-56.06304687 78.79300781 -56.52453125 78.40242188 -57 78 C-57 77.34 -57 76.68 -57 76 C-57.598125 75.71125 -58.19625 75.4225 -58.8125 75.125 C-61 74 -61 74 -64 72 C-63.40149598 69.01034358 -62.51087951 67.00221502 -60.71484375 64.546875 C-60.26689453 63.928125 -59.81894531 63.309375 -59.35742188 62.671875 C-58.88884766 62.03765625 -58.42027344 61.4034375 -57.9375 60.75 C-57.22883789 59.77546875 -57.22883789 59.77546875 -56.50585938 58.78125 C-55.34276471 57.18346338 -54.17211399 55.59118197 -53 54 C-50.22537933 55.28059415 -48.57074273 56.39023388 -46.25 58.5 C-41.71858945 62.35966878 -36.56062324 63.05329004 -30.75 63.3125 C-27.11659412 63.21942257 -27.11659412 63.21942257 -24.5 61.875 C-22.76386853 60.00380748 -22.76386853 60.00380748 -22.4375 57.0625 C-22.73277785 53.94208968 -22.73277785 53.94208968 -24.8125 52 C-27.6012403 50.25020217 -30.40190806 48.71960326 -33.3125 47.1875 C-41.56930709 42.76977437 -48.94511071 37.16466786 -52 28 C-52.72073672 20.32138189 -51.9673743 13.218767 -47.453125 6.80078125 C-35.29703483 -7.74887534 -16.10826989 -8.63348739 0 0 Z " fill="#F7F7F7" transform="translate(89,26)"/>
<path d="M0 0 C20.13 0 40.26 0 61 0 C61 4.84234082 60.86657477 8.71488785 60.0625 13.375 C59.88847656 14.41398437 59.71445312 15.45296875 59.53515625 16.5234375 C59 19 59 19 58 20 C56.58429877 20.08651611 55.164405 20.10704904 53.74609375 20.09765625 C52.89208984 20.09443359 52.03808594 20.09121094 51.15820312 20.08789062 C50.26037109 20.07951172 49.36253906 20.07113281 48.4375 20.0625 C47.53580078 20.05798828 46.63410156 20.05347656 45.70507812 20.04882812 C43.46998686 20.03700225 41.23502563 20.0205222 39 20 C38.96189209 20.78294434 38.92378418 21.56588867 38.88452148 22.37255859 C38.26204022 32.90860235 36.72054034 43.21096061 35.0625 53.625 C34.79440634 55.33846108 34.52682579 57.05200253 34.25976562 58.765625 C33.6300057 62.79544775 32.98990804 66.82351382 32.34356689 70.85070801 C32.02418514 72.84870219 31.71082009 74.8476556 31.39794922 76.84667969 C31.22408691 77.93625977 31.05022461 79.02583984 30.87109375 80.1484375 C30.72470459 81.07575684 30.57831543 82.00307617 30.42749023 82.95849609 C30 85 30 85 29 86 C27.36527118 86.08700342 25.72685945 86.10701063 24.08984375 86.09765625 C23.10048828 86.09443359 22.11113281 86.09121094 21.09179688 86.08789062 C20.05087891 86.07951172 19.00996094 86.07113281 17.9375 86.0625 C16.89271484 86.05798828 15.84792969 86.05347656 14.77148438 86.04882812 C12.1809334 86.03699913 9.59049441 86.02051689 7 86 C6.75663046 79.05977215 7.69759522 72.52896116 8.8125 65.6875 C8.99409668 64.54192627 9.17569336 63.39635254 9.36279297 62.21606445 C9.7306376 59.89883738 10.10104849 57.58201612 10.47412109 55.265625 C11.07597483 51.52820829 11.66558138 47.7889577 12.25341797 44.04931641 C12.61372799 41.75914615 12.97650494 39.46937894 13.33984375 37.1796875 C14.24627176 31.45612895 15.12390962 25.72828326 16 20 C10.06 20 4.12 20 -2 20 C-2 12 -2 12 0 0 Z " fill="#F8F8F8" transform="translate(259,23)"/>
<path d="M0 0 C0.928125 -0.639375 1.85625 -1.27875 2.8125 -1.9375 C8.84477402 -5.84073613 14.60769764 -5.25467576 21.60424805 -5.29516602 C22.98423547 -5.30664839 24.3641798 -5.32704102 25.74389648 -5.35668945 C34.05583498 -5.53515137 39.84106052 -5.30555435 47 -1 C51.06860921 -0.65891411 51.06860921 -0.65891411 54.30664062 -2.96899414 C60.50187739 -6.20103983 67.27895404 -5.55497769 74.09375 -5.49609375 C75.56856355 -5.49624913 77.0433775 -5.49774447 78.51818848 -5.50050354 C81.60475803 -5.5018836 84.69086081 -5.48940846 87.77734375 -5.46655273 C91.68583847 -5.43836939 95.59354708 -5.44085576 99.50209808 -5.45364285 C102.54982917 -5.46068904 105.59738691 -5.45270732 108.64509583 -5.44038582 C110.08322987 -5.43594314 111.52138304 -5.43546977 112.95951843 -5.43945122 C124.51739533 -5.45645513 135.70921576 -4.3516512 146.7611084 -0.78684998 C150.11750947 0.41698783 150.11750947 0.41698783 153.25 -1.8125 C154.1575 -2.534375 155.065 -3.25625 156 -4 C159.28956079 -5.09652026 161.77249313 -5.1512224 165.23706055 -5.18945312 C166.52658127 -5.20617065 167.81610199 -5.22288818 169.1446991 -5.2401123 C169.83491842 -5.24679428 170.52513775 -5.25347626 171.23627281 -5.26036072 C173.41270238 -5.2815024 175.5889903 -5.30852915 177.76533508 -5.33703613 C182.40600025 -5.39670454 187.04673647 -5.44865241 191.6875 -5.5 C197.02592127 -5.55971044 202.36427746 -5.62272719 207.70258522 -5.69187927 C209.81803384 -5.71790499 211.93349077 -5.73906447 214.04899597 -5.7598877 C222.25505235 -5.85523651 230.41086545 -6.21071946 238.59613037 -6.77130127 C242.59212315 -7.03978349 246.5578739 -7.19988998 250.5625 -7.25 C251.82191406 -7.27578125 253.08132813 -7.3015625 254.37890625 -7.328125 C258.57723811 -6.94769363 261.23910348 -5.83930589 265 -4 C265 -3.34 265 -2.68 265 -2 C265.99 -1.67 266.98 -1.34 268 -1 C273.06165467 5.72148059 271.32782504 14.15737365 270.30078125 22.05859375 C269.98139844 24.18642771 269.6515601 26.31271272 269.3125 28.4375 C269.13605957 29.58114014 268.95961914 30.72478027 268.77783203 31.90307617 C268.19973723 35.60453746 267.60326644 39.30256055 267 43 C266.89391418 43.65158081 266.78782837 44.30316162 266.67852783 44.9744873 C265.92555604 49.58972999 265.15488113 54.20172614 264.375 58.8125 C264.16915283 60.03960693 263.96330566 61.26671387 263.7512207 62.53100586 C263.45284302 64.25782593 263.45284302 64.25782593 263.1484375 66.01953125 C262.97489746 67.03120361 262.80135742 68.04287598 262.62255859 69.08520508 C262 72 262 72 260.93603516 75.16552734 C259.81961064 78.54624946 259.87253895 81.26350652 260 84.8125 C260.10485882 94.7845736 259.05826036 101.6025555 252 109 C245.12413124 115.08784784 238.31571495 116.42762258 229.25 116.2421875 C221.31614405 115.65096266 216.44736079 113.09469705 210.7265625 107.62109375 C208.89033949 105.80762467 208.89033949 105.80762467 206 104 C205.34 105.65 204.68 107.3 204 109 C203.34 109 202.68 109 202 109 C202 109.66 202 110.32 202 111 C191.52293883 117.51276776 175.87558339 115.65362221 164.125 114.4375 C156.49803241 113.74586195 148.9142575 114.24251194 141.28369141 114.68139648 C132.91074926 115.11989125 124.11330772 115.49862476 116.0625 112.8125 C112.36667301 111.83197447 111.4359683 112.57008317 108 114 C97.83478927 115.76564296 87.0790574 115.2198252 76.7902832 115.24023438 C73.80848034 115.25001318 70.82734727 115.28115809 67.84570312 115.3125 C65.92448319 115.3190256 64.00325842 115.32427781 62.08203125 115.328125 C60.76450615 115.3466452 60.76450615 115.3466452 59.42036438 115.36553955 C50.3894531 115.33333204 43.58581383 113.24807978 37 107 C36.5875 107.40992187 36.175 107.81984375 35.75 108.2421875 C35.1725 108.78101562 34.595 109.31984375 34 109.875 C33.443125 110.40867187 32.88625 110.94234375 32.3125 111.4921875 C25.67681372 115.8188343 17.62645372 115.3360967 10 115.3125 C8.43765625 115.33666992 8.43765625 115.33666992 6.84375 115.36132812 C0.47633823 115.36534796 -4.1892896 114.6082166 -10 112 C-13.59389163 110.80203612 -13.97493899 111.23623764 -17.25 112.8125 C-27.25626656 117.01951426 -38.35623693 117.8517658 -49 116 C-49.96421875 115.83628906 -50.9284375 115.67257813 -51.921875 115.50390625 C-64.87761434 112.80199688 -77.44686445 105.03919812 -85 94 C-87.14335881 89.92761827 -87.39412153 86.57180977 -87 82 C-84.86268862 76.02874862 -81.59890082 71.28685587 -77.875 66.1875 C-76.7880087 64.68174975 -75.70202104 63.17527432 -74.6171875 61.66796875 C-73.89958252 60.68219849 -73.89958252 60.68219849 -73.16748047 59.67651367 C-71.93930177 57.99871755 -71.93930177 57.99871755 -71 56 C-71.58930888 54.37421821 -72.24790116 52.77334515 -72.9375 51.1875 C-77.38705431 39.22348858 -74.9416818 28.35286371 -70 17 C-62.48660646 4.9958425 -53.67093286 -1.93802953 -40 -6 C-39.40058594 -6.19335938 -38.80117188 -6.38671875 -38.18359375 -6.5859375 C-24.80866206 -9.12214995 -11.78324437 -6.4474356 0 0 Z M-63.42578125 10.0390625 C-65.71536341 12.89109784 -67.45810224 15.6890499 -69 19 C-69.37125 19.69222656 -69.7425 20.38445313 -70.125 21.09765625 C-73.975746 29.10667311 -74.55692779 39.01250057 -72.31640625 47.62890625 C-71.59762008 49.44134794 -70.80429436 51.22384994 -70 53 C-69.29220579 56.7159196 -70.25803576 58.70616367 -72.265625 61.7421875 C-73.24876859 63.12812847 -74.24402407 64.50554167 -75.25 65.875 C-83.353294 76.37299918 -83.353294 76.37299918 -85 89 C-81.5947434 97.68340434 -75.58206338 102.06694945 -68 107 C-67.06414062 107.60908203 -67.06414062 107.60908203 -66.109375 108.23046875 C-54.16813077 115.51239572 -39.86357483 116.68407918 -26.3828125 113.71484375 C-23.84870903 112.95461271 -21.57400646 111.95061942 -19.1875 110.8125 C-16.41494048 109.49712344 -15.24906711 108.989171 -12.125 109.125 C-10 110 -10 110 -7 112 C-4.45664249 112.21949347 -2.02532099 112.32795339 0.51953125 112.3359375 C1.62381721 112.3459227 1.62381721 112.3459227 2.75041199 112.35610962 C4.30794785 112.36622931 5.865527 112.37092685 7.4230957 112.37060547 C9.79386923 112.37496573 12.16276058 112.41125222 14.53320312 112.44921875 C16.04947283 112.4550899 17.56575134 112.4590573 19.08203125 112.4609375 C19.78536087 112.47530853 20.48869049 112.48967957 21.21333313 112.50448608 C26.26870598 112.45809711 29.0977388 111.15198052 33 108 C34.02323436 106.68441297 35.03126968 105.35622245 36 104 C36.66 104 37.32 104 38 104 C39.22024994 105.47714466 40.43753734 106.95851761 41.5859375 108.4921875 C44.01074925 111.07776025 46.23956111 111.92825494 49.76316833 112.26069641 C50.82286331 112.2653038 51.88255829 112.26991119 52.97436523 112.2746582 C54.17919052 112.28419022 55.38401581 112.29372223 56.62535095 112.30354309 C57.92332108 112.30263168 59.2212912 112.30172028 60.55859375 112.30078125 C61.90853507 112.30467039 63.25847517 112.30900551 64.6084137 112.31376648 C67.43535329 112.32122016 70.26216798 112.32094367 73.08911133 112.31567383 C76.70505814 112.30988034 80.32049253 112.32681073 83.93635464 112.3500185 C86.72368846 112.3647774 89.51089948 112.36562464 92.29826546 112.36250877 C94.27743409 112.36326928 96.25658371 112.3771248 98.23570251 112.39118958 C99.44367996 112.38496078 100.65165741 112.37873199 101.89624023 112.37231445 C103.48697609 112.37325859 103.48697609 112.37325859 105.10984802 112.3742218 C108.3938485 111.94900383 110.24028195 110.76191381 113 109 C114.9375 109.75 114.9375 109.75 117 111 C121.56021364 111.98060979 126.01904393 112.14667411 130.6640625 112.1328125 C131.73580215 112.13424759 131.73580215 112.13424759 132.82919312 112.13571167 C134.33014006 112.1363885 135.83109002 112.13456908 137.33203125 112.13037109 C139.62506678 112.12499984 141.91790787 112.13034105 144.2109375 112.13671875 C145.6744796 112.13605819 147.13802157 112.13477748 148.6015625 112.1328125 C149.28392975 112.13483673 149.966297 112.13686096 150.66934204 112.13894653 C153.29866073 112.12601702 155.71641975 112.07115375 158.27490234 111.42919922 C160 111 160 111 163 112 C165.44289656 112.13204354 167.85655075 112.21201999 170.30078125 112.23828125 C171.01477585 112.246353 171.72877045 112.25442474 172.46440125 112.26274109 C173.9748595 112.2765588 175.48534868 112.28729129 176.99584961 112.29516602 C178.53500565 112.30668252 180.07412186 112.32712948 181.61303711 112.35668945 C183.84255987 112.39950509 186.07089768 112.41555322 188.30078125 112.42578125 C189.32296501 112.45204338 189.32296501 112.45204338 190.36579895 112.47883606 C195.36105143 112.45637202 198.16953156 111.14575935 202 108 C204.00643742 104.72281888 205 102.84759538 205 99 C205.66 99 206.32 99 207 99 C207.27199219 99.58652344 207.54398437 100.17304687 207.82421875 100.77734375 C210.56323222 105.95508018 214.61440691 110.57648311 220 113 C228.2559455 115.21500977 237.49663884 115.20188225 245 111 C246.03125 110.4225 247.0625 109.845 248.125 109.25 C253.37490972 105.141375 256.32316098 100.4634522 258 94 C258.17783696 91.11750091 258.10016591 88.25977817 258 85.375 C257.83824209 80.6678449 257.87622618 77.24507929 260 73 C260.3756125 71.18292704 260.67858186 69.35013786 260.9296875 67.51171875 C261.08332764 66.42358887 261.23696777 65.33545898 261.39526367 64.21435547 C261.55357666 63.05049316 261.71188965 61.88663086 261.875 60.6875 C263.29809015 50.62088136 264.871078 40.60260193 266.69287109 30.6003418 C267.68691766 25.07791765 268.43713491 19.58192248 269 14 C269.1134375 13.15308594 269.226875 12.30617188 269.34375 11.43359375 C269.71424434 6.70052851 268.87089254 4.23787846 265.8125 0.5625 C262.31824055 -3.20581901 259.06765936 -4.83746871 253.90966797 -5.24291992 C252.78189941 -5.23881104 251.65413086 -5.23470215 250.4921875 -5.23046875 C248.64173828 -5.22756836 248.64173828 -5.22756836 246.75390625 -5.22460938 C245.47386719 -5.21236328 244.19382812 -5.20011719 242.875 -5.1875 C241.58722656 -5.18685547 240.29945313 -5.18621094 238.97265625 -5.18554688 C232.38150043 -5.30080996 232.38150043 -5.30080996 226 -4 C223.81374235 -3.90714876 221.62475175 -3.87486961 219.43652344 -3.87402344 C218.44323784 -3.87122124 218.44323784 -3.87122124 217.42988586 -3.86836243 C215.99267719 -3.86436167 214.55546217 -3.86228389 213.11824799 -3.86190033 C210.05693342 -3.8584779 206.99582992 -3.8371045 203.93458939 -3.81666946 C198.2374521 -3.77869773 192.54054007 -3.74738126 186.84326172 -3.74951172 C182.87781059 -3.7503009 178.91313267 -3.72684764 174.94788361 -3.6876297 C173.44093557 -3.67719849 171.93389797 -3.67562446 170.42693329 -3.68328094 C159.25039578 -3.75251278 159.25039578 -3.75251278 150 2 C147.625 2 147.625 2 145 1 C143.60821303 0.48884471 142.21182866 -0.00986737 140.8125 -0.5 C140.13832031 -0.7578125 139.46414062 -1.015625 138.76953125 -1.28125 C125.26986958 -4.78468829 110.0272638 -3.33555128 96.15014648 -3.4050293 C92.91927906 -3.42291504 89.68927247 -3.45788413 86.45874023 -3.50756836 C82.53081047 -3.56786265 78.60368431 -3.59851193 74.67531395 -3.60820198 C73.18777229 -3.61672688 71.70025052 -3.63547182 70.21297646 -3.6649456 C60.74170526 -4.07696229 60.74170526 -4.07696229 52.53588867 0.03881836 C51.69904541 1.0160083 50.86220215 1.99319824 50 3 C47.7942579 1.93627051 45.89704279 0.92200211 43.9375 -0.5625 C38.77624093 -4.39182125 31.86767257 -3.18429703 25.75 -3.1875 C23.92662109 -3.20586914 23.92662109 -3.20586914 22.06640625 -3.22460938 C11.8467819 -3.53137388 11.8467819 -3.53137388 2.9375 0.75 C2.298125 1.1625 1.65875 1.575 1 2 C-3.02328073 0.90836859 -6.53735256 -0.76867628 -10.25 -2.625 C-28.11318925 -10.18507635 -50.61614338 -3.97903178 -63.42578125 10.0390625 Z " fill="#D5D5D5" transform="translate(97,17)"/>
<path d="M0 0 C9.9 0 19.8 0 30 0 C32.36570629 7.09711887 31.02508925 14.76831182 29.5625 21.94921875 C28.91593068 25.4559593 28.52070973 28.95627801 28.125 32.5 C27.44272995 38.4287645 26.37396217 44.17992698 25.0625 50 C23.11765854 58.63181258 21.97878503 67.28519385 21.03930664 76.08007812 C20.93094482 77.05267578 20.82258301 78.02527344 20.7109375 79.02734375 C20.62118652 79.89093506 20.53143555 80.75452637 20.43896484 81.64428711 C20 84 20 84 18 88 C8.43 88 -1.14 88 -11 88 C-10.505 87.01 -10.505 87.01 -10 86 C3.365 86.495 3.365 86.495 17 87 C15.02 84.03 13.04 81.06 11 78 C2 64.5 2 64.5 -7 51 C-7.73347656 49.95070312 -8.46695313 48.90140625 -9.22265625 47.8203125 C-11 45 -11 45 -11.0625 42.4375 C-9.65032871 39.19781293 -7.60306298 37.28879798 -5 35 C-3.37447425 33.54225271 -1.74952718 32.08386002 -0.125 30.625 C1.17630859 29.46097656 1.17630859 29.46097656 2.50390625 28.2734375 C5.78225467 25.28752392 8.89750737 22.1661335 12 19 C12.886875 18.13375 13.77375 17.2675 14.6875 16.375 C17.0207044 14.07068716 17.0207044 14.07068716 18.875 11.5625 C21.18917438 8.77187796 23.70527823 6.60963501 26.51171875 4.33203125 C28.12882545 3.04920055 28.12882545 3.04920055 29 1 C19.43 1 9.86 1 0 1 C0 0.67 0 0.34 0 0 Z " fill="#090909" transform="translate(158,22)"/>
<path d="M0 0 C7.59 0 15.18 0 23 0 C23 1.65 23 3.3 23 5 C22.34 5 21.68 5 21 5 C20.89187988 5.91136719 20.78375977 6.82273437 20.67236328 7.76171875 C19.28149012 19.20759412 17.60662944 30.60130728 15.875 42 C15.59486666 43.85413866 15.31491769 45.70830519 15.03515625 47.5625 C14.35922499 52.04204444 13.6795435 56.52099627 13 61 C5.74 61 -1.52 61 -9 61 C-8.54955441 50.0766944 -7.00764452 39.65916098 -5.05078125 28.91015625 C-3.86418742 22.36391568 -2.8859802 15.79268623 -1.95166016 9.20629883 C-1.49281116 6.02382019 -1.01924545 3.05773635 0 0 Z " fill="#F3F3F3" transform="translate(331,20)"/>
<path d="M0 0 C0.928125 -0.639375 1.85625 -1.27875 2.8125 -1.9375 C8.84477402 -5.84073613 14.60769764 -5.25467576 21.60424805 -5.29516602 C22.98423547 -5.30664839 24.3641798 -5.32704102 25.74389648 -5.35668945 C34.05583498 -5.53515137 39.84106052 -5.30555435 47 -1 C51.06627086 -0.65537585 51.06627086 -0.65537585 54.27148438 -2.97558594 C60.59509333 -6.27563523 67.71727462 -5.49170169 74.65625 -5.390625 C76.16938526 -5.38315322 77.68253027 -5.37746472 79.19567871 -5.37347412 C83.15457453 -5.35829123 87.11287185 -5.3190746 91.0715332 -5.2746582 C95.12052314 -5.23354551 99.16961095 -5.21542916 103.21875 -5.1953125 C111.14610624 -5.15257165 119.07297841 -5.08441147 127 -5 C127 -4.67 127 -4.34 127 -4 C125.77637505 -3.98786972 125.77637505 -3.98786972 124.5280304 -3.97549438 C116.83290414 -3.89748955 109.13796588 -3.8101812 101.4430666 -3.71247292 C97.48722642 -3.66256927 93.53141218 -3.61623885 89.57543945 -3.578125 C85.75628956 -3.54119704 81.93735982 -3.49481699 78.11839867 -3.44193649 C76.6628322 -3.42343238 75.20721862 -3.40830975 73.75158119 -3.39665604 C71.70956602 -3.37972496 69.66805064 -3.35067472 67.6262207 -3.31884766 C66.46484085 -3.30552399 65.303461 -3.29220032 64.10688782 -3.2784729 C59.47136676 -2.86298735 56.15463583 -1.4389805 52.6875 1.625 C51.800625 2.40875 50.91375 3.1925 50 4 C47.78345373 2.97088923 45.89130823 1.91765775 43.9375 0.4375 C38.77624093 -3.39182125 31.86767257 -2.18429703 25.75 -2.1875 C23.92662109 -2.20586914 23.92662109 -2.20586914 22.06640625 -2.22460938 C11.8467819 -2.53137388 11.8467819 -2.53137388 2.9375 1.75 C1.9784375 2.36875 1.9784375 2.36875 1 3 C-3.02328073 1.90836859 -6.53735256 0.23132372 -10.25 -1.625 C-19.93929763 -5.72571398 -34.11917785 -5.95232886 -44 -2 C-54.68460544 2.86261256 -62.86404696 8.19906872 -68 19 C-68.37253906 19.69351563 -68.74507812 20.38703125 -69.12890625 21.1015625 C-72.9735856 29.11242748 -73.556866 39.01273819 -71.31640625 47.62890625 C-70.59762008 49.44134794 -69.80429436 51.22384994 -69 53 C-68.29220579 56.7159196 -69.25803576 58.70616367 -71.265625 61.7421875 C-72.24876859 63.12812847 -73.24402407 64.50554167 -74.25 65.875 C-82.353294 76.37299918 -82.353294 76.37299918 -84 89 C-82.50930886 92.76222051 -80.90056521 95.23755694 -78 98 C-78 98.66 -78 99.32 -78 100 C-77.42121094 100.27199219 -76.84242187 100.54398437 -76.24609375 100.82421875 C-74.01130655 101.99408127 -72.10029465 103.33011195 -70.0625 104.8125 C-54.36786665 115.41417286 -38.05217712 114.49544663 -20 113 C-27.7375271 118.1583514 -40.12283709 117.54441869 -49 116 C-49.96421875 115.83628906 -50.9284375 115.67257813 -51.921875 115.50390625 C-64.87761434 112.80199688 -77.44686445 105.03919812 -85 94 C-87.14335881 89.92761827 -87.39412153 86.57180977 -87 82 C-84.86268862 76.02874862 -81.59890082 71.28685587 -77.875 66.1875 C-76.7880087 64.68174975 -75.70202104 63.17527432 -74.6171875 61.66796875 C-73.89958252 60.68219849 -73.89958252 60.68219849 -73.16748047 59.67651367 C-71.93930177 57.99871755 -71.93930177 57.99871755 -71 56 C-71.58930888 54.37421821 -72.24790116 52.77334515 -72.9375 51.1875 C-77.38705431 39.22348858 -74.9416818 28.35286371 -70 17 C-62.48660646 4.9958425 -53.67093286 -1.93802953 -40 -6 C-39.40058594 -6.19335938 -38.80117188 -6.38671875 -38.18359375 -6.5859375 C-24.80866206 -9.12214995 -11.78324437 -6.4474356 0 0 Z " fill="#E0E0E0" transform="translate(97,17)"/>
<path d="M0 0 C3 1 3 1 4.9375 3.4375 C7.03606957 6.04481371 7.95382749 6.83688583 11 8 C13.83343784 8.30895688 13.83343784 8.30895688 16.97436523 8.2746582 C18.17919052 8.28419022 19.38401581 8.29372223 20.62535095 8.30354309 C22.57230614 8.30217598 22.57230614 8.30217598 24.55859375 8.30078125 C25.90853507 8.30467039 27.25847517 8.30900551 28.6084137 8.31376648 C31.43535329 8.32122016 34.26216798 8.32094367 37.08911133 8.31567383 C40.70505814 8.30988034 44.32049253 8.32681073 47.93635464 8.3500185 C50.72368846 8.3647774 53.51089948 8.36562464 56.29826546 8.36250877 C58.27743409 8.36326928 60.25658371 8.3771248 62.23570251 8.39118958 C63.44367996 8.38496078 64.65165741 8.37873199 65.89624023 8.37231445 C67.48697609 8.37325859 67.48697609 8.37325859 69.10984802 8.3742218 C72.3938485 7.94900383 74.24028195 6.76191381 77 5 C78.9375 5.75 78.9375 5.75 81 7 C85.56021364 7.98060979 90.01904393 8.14667411 94.6640625 8.1328125 C95.73580215 8.13424759 95.73580215 8.13424759 96.82919312 8.13571167 C98.33014006 8.1363885 99.83109002 8.13456908 101.33203125 8.13037109 C103.62506678 8.12499984 105.91790787 8.13034105 108.2109375 8.13671875 C109.6744796 8.13605819 111.13802157 8.13477748 112.6015625 8.1328125 C113.28392975 8.13483673 113.966297 8.13686096 114.66934204 8.13894653 C117.29866073 8.12601702 119.71641975 8.07115375 122.27490234 7.42919922 C124 7 124 7 127 8 C129.3555448 8.15179014 131.71475123 8.24899289 134.07421875 8.31640625 C134.7580513 8.33718735 135.44188385 8.35796844 136.1464386 8.37937927 C138.3266921 8.44466154 140.50706405 8.50366017 142.6875 8.5625 C144.16732986 8.60570553 145.64714783 8.64932047 147.12695312 8.69335938 C150.75117622 8.80032083 154.37553189 8.90164823 158 9 C158 9.33 158 9.66 158 10 C156.78159424 10.03758423 156.78159424 10.03758423 155.53857422 10.07592773 C153.07356037 10.15210651 150.60855464 10.22854844 148.14355469 10.30517578 C145.27184083 10.39443333 142.40009273 10.48247267 139.52832031 10.56982422 C132.22335942 10.79380277 124.91989341 11.03551321 117.6171875 11.32421875 C116.28011776 11.37526727 114.94304103 11.42613295 113.60595703 11.47680664 C111.10409577 11.57295896 108.60243985 11.67467693 106.10107422 11.78295898 C88.01917334 12.46188366 88.01917334 12.46188366 80.0625 9.8125 C76.36667301 8.83197447 75.4359683 9.57008317 72 11 C61.83478927 12.76564296 51.0790574 12.2198252 40.7902832 12.24023438 C37.80848034 12.25001318 34.82734727 12.28115809 31.84570312 12.3125 C29.92448319 12.3190256 28.00325842 12.32427781 26.08203125 12.328125 C24.76450615 12.3466452 24.76450615 12.3466452 23.42036438 12.36553955 C14.3894531 12.33333204 7.58581383 10.24807978 1 4 C0.38125 4.61488281 0.38125 4.61488281 -0.25 5.2421875 C-1.11625 6.05042969 -1.11625 6.05042969 -2 6.875 C-2.556875 7.40867187 -3.11375 7.94234375 -3.6875 8.4921875 C-10.32318628 12.8188343 -18.37354628 12.3360967 -26 12.3125 C-27.56234375 12.33666992 -27.56234375 12.33666992 -29.15625 12.36132812 C-35.52366177 12.36534796 -40.1892896 11.6082166 -46 9 C-48.90610837 7.67047174 -48.90610837 7.67047174 -51.3125 8.9375 C-54.37756511 10.14926993 -56.73368961 10.15192141 -60 10 C-56.37879469 7.04938827 -53.18420651 4.79198033 -48.375 5.25 C-46 6 -46 6 -43 8 C-40.45664249 8.21949347 -38.02532099 8.32795339 -35.48046875 8.3359375 C-34.37618279 8.3459227 -34.37618279 8.3459227 -33.24958801 8.35610962 C-31.69205215 8.36622931 -30.134473 8.37092685 -28.5769043 8.37060547 C-26.20613077 8.37496573 -23.83723942 8.41125222 -21.46679688 8.44921875 C-19.95052717 8.4550899 -18.43424866 8.4590573 -16.91796875 8.4609375 C-15.86297432 8.48249405 -15.86297432 8.48249405 -14.78666687 8.50448608 C-9.72904178 8.45807645 -6.90741152 7.1467377 -3 4 C-1.16699091 1.89424357 -1.16699091 1.89424357 0 0 Z " fill="#ABABAB" transform="translate(133,120)"/>
<path d="M0 0 C2.9731106 2.14960135 4.56890819 3.85253506 5.4609375 7.4609375 C5.70926227 11.95091788 5.3918611 14.29142045 2.66796875 17.94921875 C1.73984375 18.62984375 0.81171875 19.31046875 -0.14453125 20.01171875 C-0.92828125 20.63046875 -1.71203125 21.24921875 -2.51953125 21.88671875 C-6.21255768 23.46944436 -8.29737516 23.09162221 -12.14453125 22.01171875 C-15.05249507 20.14463683 -17.5722402 18.15630084 -19.14453125 15.01171875 C-19.78513347 9.84114368 -20.04358184 6.20235332 -16.83203125 1.94921875 C-11.86117411 -1.63442245 -5.67459766 -2.61506959 0 0 Z " fill="#F1F1F1" transform="translate(337.14453125,88.98828125)"/>
<path d="M0 0 C5.52274669 -0.3217134 10.46088563 -0.51303812 15.75 1.25 C18.90898737 5.11098456 18.83660481 8.18620617 18.5859375 13.07421875 C17.83358611 16.83096003 16.67073305 18.65755835 13.69921875 21.01953125 C8.71636223 23.89469673 2.58009336 23.11160187 -3 23 C-2.41993763 15.24548194 -1.37559416 7.65257723 0 0 Z " fill="#040404" transform="translate(210,40)"/>
<path d="M0 0 C0 0.33 0 0.66 0 1 C-8.63470211 2.79713096 -17.04007911 3.27259811 -25.83332253 3.24382973 C-28.07531432 3.23813968 -30.31680715 3.24754639 -32.5587616 3.2610321 C-38.9229093 3.29778598 -45.28687155 3.31666475 -51.65112305 3.30541992 C-55.56855932 3.29955264 -59.48527409 3.31788759 -63.4025631 3.35130882 C-64.88440623 3.35922207 -66.36632885 3.35804145 -67.84815407 3.34728432 C-75.99106832 3.29063435 -81.75782046 3.28834621 -88 9 C-90.375 9 -90.375 9 -93 8 C-94.39178697 7.48884471 -95.78817134 6.99013263 -97.1875 6.5 C-97.86167969 6.2421875 -98.53585938 5.984375 -99.23046875 5.71875 C-108.27072275 3.3726192 -117.92533288 3.79605586 -127.1953125 3.68359375 C-128.63834155 3.66297502 -130.08136523 3.64197744 -131.52438354 3.62062073 C-135.28893637 3.56590715 -139.05353901 3.51627828 -142.81817627 3.46777344 C-146.67309912 3.41718363 -150.52795128 3.36169493 -154.3828125 3.30664062 C-161.92181482 3.19968118 -169.46087667 3.09810302 -177 3 C-177 2.67 -177 2.34 -177 2 C-167.57618441 1.90680736 -158.1525305 1.83598752 -148.72835255 1.79275131 C-144.35104258 1.771987 -139.97405076 1.74387687 -135.59692383 1.69824219 C-131.36287554 1.65438173 -127.12913083 1.6307793 -122.89487267 1.62049103 C-121.28952959 1.61317101 -119.68420077 1.5988795 -118.07898903 1.57707977 C-108.90462989 1.4575834 -101.31668395 1.94344996 -92.62065125 5.33404541 C-90.05006905 6.24780579 -90.05006905 6.24780579 -87.82241821 5.21522522 C-87.2210202 4.8142009 -86.61962219 4.41317657 -86 4 C-79.03689551 0.0632305 -71.90871325 0.52246952 -64.08203125 0.48828125 C-62.61861198 0.47139724 -61.15520687 0.45324212 -59.69181824 0.43388367 C-55.84797676 0.38651321 -52.00419239 0.35665276 -48.16015625 0.33044434 C-44.28308119 0.30080987 -40.40621787 0.25402735 -36.52929688 0.20898438 C-24.35296121 0.07314206 -12.17722624 -0.02334704 0 0 Z " fill="#CCCCCC" transform="translate(335,11)"/>
<path d="M0 0 C0.66 0 1.32 0 2 0 C4.06112687 2.42512279 5.92917954 4.96890024 7.83203125 7.51953125 C11.63782141 11.87390378 15.31130088 13.48284553 21 14 C26.79232778 14.18101024 32.3274068 14.31146191 38 13 C37.67 13.99 37.34 14.98 37 16 C29.8646491 18.3784503 21.07235371 17.80867785 14.06640625 15.125 C10.88285523 13.3918002 8.33613717 11.11790902 5.7265625 8.62109375 C3.89033949 6.80762467 3.89033949 6.80762467 1 5 C0.34 6.65 -0.32 8.3 -1 10 C-1.66 10 -2.32 10 -3 10 C-3 10.66 -3 11.32 -3 12 C-12.25288093 17.75179085 -24.49535106 16.12758683 -35 16 C-34.67 15.34 -34.34 14.68 -34 14 C-33.33991943 13.9906543 -32.67983887 13.98130859 -31.99975586 13.97167969 C-28.97827535 13.91764427 -25.95828824 13.83406307 -22.9375 13.75 C-21.89916016 13.73582031 -20.86082031 13.72164062 -19.79101562 13.70703125 C-13.38672347 13.50372039 -9.12874004 12.97063745 -4 9 C-2.37004376 6.72875651 -2.37004376 6.72875651 -1.5625 4.25 C-1.25441406 3.45078125 -0.94632812 2.6515625 -0.62890625 1.828125 C-0.42136719 1.22484375 -0.21382813 0.6215625 0 0 Z " fill="#E2E2E2" transform="translate(302,116)"/>
<path d="M0 0 C2.42109498 0.14563628 4.84506572 0.24656568 7.26953125 0.31640625 C7.95053391 0.33718735 8.63153656 0.35796844 9.33317566 0.37937927 C11.49285508 0.44437878 13.65264846 0.50352712 15.8125 0.5625 C17.28321456 0.6057325 18.75391791 0.64934825 20.22460938 0.69335938 C23.81628717 0.80000859 27.40809082 0.90141349 31 1 C31 1.33 31 1.66 31 2 C30.18772949 2.02505615 29.37545898 2.0501123 28.53857422 2.07592773 C25.3701984 2.1738432 22.20183666 2.27220444 19.03347778 2.3706665 C16.87316381 2.43755685 14.71282828 2.50371651 12.55249023 2.56982422 C5.11088354 2.7990867 -2.32965087 3.04422041 -9.76953125 3.32421875 C-11.82931669 3.39990699 -13.88911382 3.47526989 -15.94891357 3.55056763 C-17.92132276 3.62439449 -19.89352612 3.70365438 -21.86572266 3.78295898 C-23.6472876 3.84785522 -23.6472876 3.84785522 -25.46484375 3.9140625 C-27.03673462 3.9752124 -27.03673462 3.9752124 -28.64038086 4.03759766 C-31 4 -31 4 -32 3 C-34.01311449 2.60430892 -36.03597208 2.25747809 -38.0625 1.9375 C-39.71958984 1.67259766 -39.71958984 1.67259766 -41.41015625 1.40234375 C-42.26480469 1.26957031 -43.11945313 1.13679687 -44 1 C-40.19006839 -0.23631125 -36.41756883 -0.10974815 -32.4609375 -0.0625 C-31.37783798 -0.05682007 -31.37783798 -0.05682007 -30.27285767 -0.05102539 C-27.97351028 -0.0388393 -25.67429008 -0.02020297 -23.375 0 C-20.34114934 0.02653514 -17.30736015 0.04654739 -14.2734375 0.0625 C-13.57447357 0.07079834 -12.87550964 0.07909668 -12.15536499 0.08764648 C-7.52787839 0.11124913 -4.56133862 -0.93871711 0 0 Z " fill="#A6A6A6" transform="translate(260,128)"/>
<path d="M0 0 C3.18732254 -0.08797281 6.37432788 -0.14071341 9.5625 -0.1875 C10.45775391 -0.21263672 11.35300781 -0.23777344 12.27539062 -0.26367188 C17.99784892 -0.32655603 21.91424859 0.34201469 27 3 C27 3.66 27 4.32 27 5 C27.99 5.33 28.98 5.66 30 6 C34.68312019 12.22953693 33.46067519 19.29884888 32.54296875 26.671875 C32.06977191 29.79020812 31.56066536 32.89631678 31 36 C30.67 36 30.34 36 30 36 C30.04713135 34.9644397 30.04713135 34.9644397 30.09521484 33.90795898 C30.22065894 30.75147853 30.29819804 27.59552328 30.375 24.4375 C30.42527344 23.35146484 30.47554688 22.26542969 30.52734375 21.14648438 C30.62284165 15.91001645 30.67917919 12.03589458 27.2890625 7.84765625 C21.85996491 2.667389 16.37454284 2.63225433 9.1875 2.375 C8.30384766 2.33632812 7.42019531 2.29765625 6.50976562 2.2578125 C4.34017028 2.16399216 2.17011453 2.08092674 0 2 C0 1.34 0 0.68 0 0 Z " fill="#E7E7E7" transform="translate(335,10)"/>
<path d="M0 0 C0.556875 0.28875 1.11375 0.5775 1.6875 0.875 C7.18010681 3.54707899 11.94314744 4.49856123 18 5 C18 5.33 18 5.66 18 6 C7.37704612 6.34577427 7.37704612 6.34577427 3.125 4.875 C-0.6381587 3.82131557 -1.50180711 4.53557934 -5 6 C-15.2349088 7.80382071 -26.07056236 7.15244921 -36.42944336 7.13037109 C-39.45496532 7.12496881 -42.48034168 7.13036519 -45.50585938 7.13671875 C-47.44010449 7.13605864 -49.37434952 7.13477888 -51.30859375 7.1328125 C-52.20758896 7.13483673 -53.10658417 7.13686096 -54.03282166 7.13894653 C-58.15115076 7.12352531 -61.98409578 7.04240638 -66 6 C-66 5.67 -66 5.34 -66 5 C-65.2616391 4.99635437 -64.5232782 4.99270874 -63.76254272 4.98895264 C-56.78871658 4.95101461 -49.81527286 4.89409604 -42.84178734 4.81609726 C-39.25697429 4.77666399 -35.67240533 4.74445562 -32.08740234 4.72900391 C-28.6246726 4.71380926 -25.16261408 4.67931592 -21.70018387 4.63169098 C-19.74280259 4.60973247 -17.78523181 4.60752867 -15.82772827 4.60565186 C-7.11971017 4.49234898 -7.11971017 4.49234898 0 0 Z " fill="#E7E7E7" transform="translate(210,125)"/>
<path d="M0 0 C0.33 0 0.66 0 1 0 C1.49644996 9.70835475 0.01172782 18.56403855 -2 28 C-2.66 28 -3.32 28 -4 28 C-3.47703913 18.47850555 -1.8815863 9.32509434 0 0 Z " fill="#CBCBCB" transform="translate(364,40)"/>
<path d="M0 0 C0 0.33 0 0.66 0 1 C-0.71019287 0.98952637 -1.42038574 0.97905273 -2.15209961 0.96826172 C-5.41386279 0.92632514 -8.67556896 0.90055514 -11.9375 0.875 C-13.05447266 0.85824219 -14.17144531 0.84148438 -15.32226562 0.82421875 C-23.01750436 0.77908538 -29.70904599 1.569682 -37 4 C-36 1 -36 1 -34.3125 0.05078125 C-23.37552704 -3.44092126 -10.98402834 -3.1953537 0 0 Z " fill="#DADADA" transform="translate(87,12)"/>
<path d="M0 0 C0.33 0 0.66 0 1 0 C1.22424141 7.36259293 0.90120099 13.87049629 -1 21 C3.29 21 7.58 21 12 21 C12 21.33 12 21.66 12 22 C6.94997778 23.03590199 2.12583611 23.10251672 -3 23 C-2.41993763 15.24548194 -1.37559416 7.65257723 0 0 Z " fill="#5D5D5D" transform="translate(210,40)"/>
<path d="M0 0 C6.15863619 -0.57289639 11.0310418 1.15992727 16.81640625 3.22265625 C20.28527699 4.06965659 22.55653464 3.8233248 26 3 C24.3125 5.0625 24.3125 5.0625 22 7 C17.31365441 6.5103818 12.69412435 4.7860875 8.1875 3.4375 C7.39923828 3.20353516 6.61097656 2.96957031 5.79882812 2.72851562 C3.86529864 2.15431596 1.93256823 1.57742667 0 1 C0 0.67 0 0.34 0 0 Z " fill="#C9C9C9" transform="translate(225,13)"/>
<path d="M0 0 C1.29228516 0.01611328 2.58457031 0.03222656 3.91601562 0.04882812 C5.27085032 0.09059851 6.62566803 0.13292316 7.98046875 0.17578125 C9.35477741 0.20088056 10.72912991 0.22369089 12.10351562 0.24414062 C15.45944851 0.30301664 18.81314965 0.38521705 22.16796875 0.48828125 C21.83796875 1.14828125 21.50796875 1.80828125 21.16796875 2.48828125 C20.41700928 2.45686035 19.6660498 2.42543945 18.89233398 2.39306641 C15.46368988 2.26773462 12.03552844 2.19011459 8.60546875 2.11328125 C7.42404297 2.06300781 6.24261719 2.01273438 5.02539062 1.9609375 C-2.68601814 1.78143008 -2.68601814 1.78143008 -9.171875 5.51171875 C-10.04972656 6.49398438 -10.92757812 7.47625 -11.83203125 8.48828125 C-11.83203125 5.48828125 -11.83203125 5.48828125 -9.7590332 2.83129883 C-6.18163234 -0.03235253 -4.52559436 -0.0996827 0 0 Z " fill="#D1D1D1" transform="translate(164.83203125,22.51171875)"/>
<path d="M0 0 C3.73386136 1.24462045 4.64805848 2.91307675 7 6 C7.98230498 7.0173873 8.97469597 8.02596117 10 9 C5.61031544 9 4.23094261 6.87194899 1 4 C0.4225 4.680625 -0.155 5.36125 -0.75 6.0625 C-1.4925 6.701875 -2.235 7.34125 -3 8 C-5.25 7.75 -5.25 7.75 -7 7 C-4.66666667 4.66666667 -2.33333333 2.33333333 0 0 Z " fill="#D4D4D4" transform="translate(133,120)"/>
<path d="M0 0 C-0.58265625 0.26554688 -1.1653125 0.53109375 -1.765625 0.8046875 C-4.06174228 2.03302996 -5.80356018 3.40314939 -7.75 5.125 C-8.36359375 5.66382813 -8.9771875 6.20265625 -9.609375 6.7578125 C-10.06828125 7.16773438 -10.5271875 7.57765625 -11 8 C-13.94094478 6.57557581 -16.41413071 5.00196332 -19 3 C-19.99 2.34 -20.98 1.68 -22 1 C-17.94393835 1.46800711 -14.53411321 1.87953208 -11 4 C-10.113125 3.34 -9.22625 2.68 -8.3125 2 C-5.01888014 0.01139933 -3.71748127 -0.43735074 0 0 Z " fill="#D7D7D7" transform="translate(158,13)"/>
<path d="M0 0 C0.8353125 0.433125 0.8353125 0.433125 1.6875 0.875 C7.18010681 3.54707899 11.94314744 4.49856123 18 5 C18 5.33 18 5.66 18 6 C11.51089311 6.21121867 6.26303499 5.84206912 0 4 C-3.31460798 4.2861123 -3.31460798 4.2861123 -6 5 C-4.06745228 2.9754262 -2.36841312 1.57894208 0 0 Z " fill="#CFCFCF" transform="translate(210,125)"/>
<path d="M0 0 C0.66 0.33 1.32 0.66 2 1 C1.67 1.66 1.34 2.32 1 3 C-2.31997939 4.1066598 -4.94306627 4.20240272 -8.4375 4.25 C-9.57058594 4.27578125 -10.70367187 4.3015625 -11.87109375 4.328125 C-15.24142471 3.97468205 -16.5598938 3.27823183 -19 1 C-17.87980469 1.01160156 -16.75960938 1.02320313 -15.60546875 1.03515625 C-14.13281417 1.04453622 -12.66015778 1.0536362 -11.1875 1.0625 C-10.44951172 1.07087891 -9.71152344 1.07925781 -8.95117188 1.08789062 C-5.70077932 1.10259828 -3.10595105 1.03531702 0 0 Z " fill="#B3B3B3" transform="translate(338,129)"/>
<path d="M0 0 C2.87206611 4.30809916 4.4800767 7.77335855 4 13 C2.6875 15.45703125 2.6875 15.45703125 1 17.8125 C0.443125 18.60269531 -0.11375 19.39289063 -0.6875 20.20703125 C-1.120625 20.79871094 -1.55375 21.39039062 -2 22 C-2.66015625 20.21484375 -2.66015625 20.21484375 -3 18 C-1.93359375 16.25390625 -1.93359375 16.25390625 -0.4375 14.5625 C0.99256721 12.79620163 0.99256721 12.79620163 2 11 C1.40257876 8.38119246 1.40257876 8.38119246 0 6 C-0.125 2.6875 -0.125 2.6875 0 0 Z " fill="#CBCBCB" transform="translate(24,62)"/>
<path d="M0 0 C6.75479274 -0.7342166 11.18524285 1.72408048 17 5 C16.67 5.66 16.34 6.32 16 7 C10.55123997 5.27933894 5.28830549 3.15294651 0 1 C0 0.67 0 0.34 0 0 Z " fill="#C8C8C8" transform="translate(82,13)"/>
<path d="M0 0 C0.33 0.99 0.66 1.98 1 3 C-0.3984375 5.375 -0.3984375 5.375 -2.375 8 C-5.17019581 11.74116756 -5.17019581 11.74116756 -7 16 C-7.66 16 -8.32 16 -9 16 C-7.51637716 9.73581469 -3.75837844 5.08486495 0 0 Z " fill="#DDDDDD" transform="translate(20,82)"/>
<path d="M0 0 C5.75 -0.125 5.75 -0.125 8 1 C8 1.66 8 2.32 8 3 C8.99 3.33 9.98 3.66 11 4 C11.33 5.98 11.66 7.96 12 10 C10.88625 8.8553125 10.88625 8.8553125 9.75 7.6875 C6.67504402 4.68242938 3.56742329 2.37828219 0 0 Z " fill="#D2D2D2" transform="translate(354,12)"/>
<path d="M0 0 C0.99 0.33 1.98 0.66 3 1 C1.88121617 2.17262904 0.75476949 3.33795138 -0.375 4.5 C-1.00148438 5.1496875 -1.62796875 5.799375 -2.2734375 6.46875 C-4 8 -4 8 -6 8 C-6 8.99 -6 9.98 -6 11 C-6.66 11 -7.32 11 -8 11 C-6.52670958 5.99081256 -3.72484762 3.48192278 0 0 Z " fill="#D1D1D1" transform="translate(48,26)"/>
<path d="M0 0 C0.66 0 1.32 0 2 0 C3.2890625 1.53125 3.2890625 1.53125 4.625 3.5 C5.07101562 4.1496875 5.51703125 4.799375 5.9765625 5.46875 C6.31429688 5.9740625 6.65203125 6.479375 7 7 C4.33333333 6.33333333 1.66666667 5.66666667 -1 5 C-0.67 3.35 -0.34 1.7 0 0 Z " fill="#C0C0C0" transform="translate(302,116)"/>
<path d="M0 0 C0.51949219 0.27714844 1.03898437 0.55429688 1.57421875 0.83984375 C5.36216005 2.80733267 8.70699113 4.46337389 13 5 C13 5.33 13 5.66 13 6 C7.32822615 6.45374191 4.4024732 5.65083143 0 2 C0 1.34 0 0.68 0 0 Z " fill="#CECECE" transform="translate(28,123)"/>
<path d="M0 0 C-0.8353125 0.37125 -0.8353125 0.37125 -1.6875 0.75 C-4.15733393 1.97476786 -4.15733393 1.97476786 -6.5 4.1875 C-7.7375 5.0846875 -7.7375 5.0846875 -9 6 C-11.15625 5.61328125 -11.15625 5.61328125 -13 5 C-4.738041 -0.74031891 -4.738041 -0.74031891 0 0 Z " fill="#E0E0E0" transform="translate(158,13)"/>
<path d="M0 0 C-1.50223584 4.20626034 -4.28550034 5.73900021 -8 8 C-6.48291727 4.46014029 -4.24676932 0 0 0 Z " fill="#CACACA" transform="translate(160,23)"/>
<path d="M0 0 C3.87132028 0.57352893 6.08172796 2.48704352 9 5 C8.67 5.66 8.34 6.32 8 7 C6.66382648 6.02471263 5.3311249 5.04466681 4 4.0625 C3.2575 3.51722656 2.515 2.97195312 1.75 2.41015625 C1.1725 1.94480469 0.595 1.47945313 0 1 C0 0.67 0 0.34 0 0 Z " fill="#E4E4E4" transform="translate(19,118)"/>
<path d="M0 0 C-7.5 5 -7.5 5 -10 5 C-10 4.34 -10 3.68 -10 3 C-6.58168085 0.4606772 -4.24223102 -0.3636198 0 0 Z " fill="#E5E5E5" transform="translate(108,13)"/>
</svg>
